<?xml version="1.0" encoding="UTF-8"?>
<svg xmlns="http://www.w3.org/2000/svg" xmlns:xlink="http://www.w3.org/1999/xlink" width="150px" height="145px" viewBox="0 0 150 145" version="1.1">
<g id="surface1">
<path style=" stroke:none;fill-rule:nonzero;fill:rgb(40.784314%,68.235294%,15.686275%);fill-opacity:1;" d="M 101.359375 31.167969 L 24.140625 91.074219 C 23.34375 91.164062 22.160156 90.960938 20.59375 90.476562 C 18.625 89.855469 16.757812 88.9375 14.988281 87.71875 C 9.949219 84.261719 6.898438 79.300781 5.835938 72.832031 C 4.800781 66.628906 5.75 59.972656 8.6875 52.863281 C 9.660156 50.515625 10.855469 48.089844 12.269531 45.585938 L 14.855469 41.234375 C 16.957031 37.492188 18.691406 33.792969 20.0625 30.136719 C 22.339844 24.023438 22.957031 19.503906 21.917969 16.578125 L 22.980469 16.710938 C 23.773438 16.867188 24.414062 17.15625 24.902344 17.578125 C 24.835938 16.867188 24.648438 16.039062 24.339844 15.085938 C 23.699219 13.136719 22.78125 11.496094 21.585938 10.167969 L 25.167969 9.667969 C 28.195312 9.691406 31.269531 10.554688 34.382812 12.261719 L 34.152344 10.433594 C 34.0625 9.191406 34.1875 8.507812 34.515625 8.375 C 35.027344 8.171875 35.753906 8.660156 36.707031 9.835938 C 36.726562 8.859375 36.9375 7.753906 37.335938 6.511719 C 38.109375 4.074219 39.414062 2.238281 41.246094 0.996094 L 43.070312 4.351562 C 44.773438 6.765625 46.851562 8.441406 49.304688 9.371094 C 51.449219 10.210938 56.3125 10.855469 63.894531 11.296875 C 71.230469 11.738281 76.402344 12.648438 79.410156 14.023438 L 82.59375 14.289062 C 85.179688 14.621094 87.566406 15.230469 89.753906 16.113281 C 96.804688 18.972656 100.671875 23.988281 101.359375 31.167969 "/>
<path style=" stroke:none;fill-rule:nonzero;fill:rgb(33.72549%,57.647059%,12.156863%);fill-opacity:1;" d="M 8.125 79.34375 C 3.128906 69.910156 4.324219 59.066406 11.707031 46.816406 C 7.972656 56.71875 9.230469 64.636719 15.484375 70.574219 C 18.203125 73.140625 21.628906 75.023438 25.765625 76.222656 C 29.808594 77.375 34.097656 77.75 38.628906 77.351562 L 23.179688 91.339844 C 20.921875 91.140625 18.414062 90.042969 15.652344 88.050781 C 12.492188 85.722656 9.980469 82.824219 8.125 79.34375 "/>
<path style=" stroke:none;fill-rule:nonzero;fill:rgb(48.627451%,74.509804%,70.196078%);fill-opacity:1;" d="M 131.664062 26.78125 C 133.628906 27.644531 135.34375 30.578125 136.800781 35.585938 C 138.105469 40.125 138.546875 43.339844 138.128906 45.222656 C 140.734375 48.253906 143.277344 54.179688 145.753906 62.996094 C 148.5625 72.875 149.035156 80.066406 147.179688 84.5625 C 146.582031 86 144.835938 87.960938 141.941406 90.441406 C 138.933594 93.054688 135.960938 95.070312 133.023438 96.488281 L 134.515625 98.914062 C 135.707031 101.042969 136.78125 103.335938 137.730469 105.792969 C 140.757812 113.722656 142.019531 121.941406 141.511719 130.445312 C 141.355469 133.148438 139.121094 135.363281 134.8125 137.09375 C 130.589844 138.753906 126.09375 139.308594 121.316406 138.753906 C 119.703125 138.53125 117.570312 136.636719 114.917969 133.070312 C 111.890625 128.929688 110.089844 124.632812 109.515625 120.179688 C 105.46875 122.527344 102.054688 124.113281 99.269531 124.929688 L 98.40625 126.394531 C 97.65625 127.589844 96.773438 128.695312 95.753906 129.714844 C 92.550781 132.996094 88.757812 134.820312 84.382812 135.199219 C 80.027344 135.574219 76.648438 135.230469 74.238281 134.167969 C 73.484375 133.835938 72.867188 133.449219 72.378906 133.003906 L 71.917969 132.441406 L 45.425781 133.335938 L 42.707031 135.730469 C 40.273438 137.347656 37.46875 138.199219 34.285156 138.289062 C 29.929688 138.421875 26.503906 138.023438 24.007812 137.09375 C 20.867188 135.894531 18.636719 133.714844 17.308594 130.546875 C 15.386719 125.984375 14.371094 120.753906 14.257812 114.863281 C 14.105469 107.199219 15.816406 100.929688 19.398438 96.058594 C 22.847656 91.363281 27.34375 86.578125 32.894531 81.703125 C 34.441406 80.351562 38.652344 76.917969 45.523438 71.402344 C 49.039062 68.613281 52.167969 65.910156 54.90625 63.296875 C 57.691406 60.636719 59.382812 58.734375 59.980469 57.582031 C 60.621094 53.171875 61.460938 48.699219 62.5 44.15625 C 64.601562 35.074219 66.632812 30.226562 68.601562 29.605469 C 70.566406 29.007812 73.464844 29.636719 77.289062 31.5 C 79.1875 32.449219 80.890625 33.449219 82.394531 34.488281 L 84.648438 33.691406 C 86.636719 33.09375 88.816406 32.585938 91.179688 32.164062 C 98.738281 30.855469 106.761719 30.777344 115.25 31.929688 C 116.53125 30.558594 119.363281 29.226562 123.738281 27.945312 C 127.960938 26.703125 130.601562 26.316406 131.664062 26.78125 "/>
<path style=" stroke:none;fill-rule:nonzero;fill:rgb(40.784314%,63.137255%,59.607843%);fill-opacity:1;" d="M 137.664062 40.003906 L 138.328125 45.222656 L 134.910156 40.136719 C 135.265625 38.652344 135.421875 36.648438 135.375 34.125 L 135.175781 30.800781 C 136.195312 32.992188 137.023438 36.0625 137.664062 40.003906 "/>
<path style=" stroke:none;fill-rule:nonzero;fill:rgb(40.784314%,63.137255%,59.607843%);fill-opacity:1;" d="M 61.738281 45.886719 C 63.527344 37.644531 65.285156 32.882812 67.007812 31.597656 C 66.589844 36.382812 66.445312 41.113281 66.578125 45.785156 C 66.667969 48.53125 66.953125 52.71875 67.441406 58.34375 C 67.726562 61.691406 67.386719 64.660156 66.414062 67.25 C 65.550781 69.507812 64.421875 71.050781 63.03125 71.867188 C 61.660156 72.667969 60.53125 72.488281 59.648438 71.335938 C 58.699219 70.074219 58.378906 67.902344 58.6875 64.824219 C 59.304688 58.6875 60.324219 52.375 61.738281 45.886719 "/>
<path style=" stroke:none;fill-rule:nonzero;fill:rgb(40.784314%,63.137255%,59.607843%);fill-opacity:1;" d="M 121.582031 130.347656 C 123.285156 133.535156 125.320312 135.53125 127.683594 136.328125 L 126.425781 138.851562 C 123.085938 139.519531 120.136719 138.644531 117.570312 136.226562 C 114.5 133.28125 111.78125 127.933594 109.414062 120.179688 C 105.589844 122.503906 101.347656 124.246094 96.683594 125.394531 C 92.085938 126.546875 86.558594 127.246094 80.105469 127.488281 C 79.089844 127.820312 78.347656 128.53125 77.882812 129.617188 C 77.421875 130.65625 77.410156 131.597656 77.851562 132.441406 L 75.996094 134.632812 L 72.015625 132.207031 C 72.125 131.453125 72.746094 129.207031 73.871094 125.460938 C 74.976562 121.875 75.675781 118.761719 75.960938 116.125 C 76.800781 108.242188 74.613281 101.109375 69.398438 94.726562 C 74.039062 99.402344 82.171875 102.335938 93.800781 103.535156 C 106.222656 104.796875 116.777344 103.667969 125.460938 100.144531 C 122.675781 101.9375 120.6875 104.730469 119.496094 108.515625 C 118.433594 111.929688 118.113281 115.707031 118.53125 119.847656 C 118.953125 123.835938 119.96875 127.335938 121.582031 130.347656 "/>
<path style=" stroke:none;fill-rule:nonzero;fill:rgb(40.784314%,63.137255%,59.607843%);fill-opacity:1;" d="M 13.925781 111.273438 C 14.878906 119.050781 19.121094 124.046875 26.660156 126.261719 C 29.554688 127.101562 32.605469 127.414062 35.808594 127.191406 C 38.726562 126.992188 41.125 126.414062 43.003906 125.460938 L 45.425781 133.636719 C 43.703125 135.320312 41.378906 136.636719 38.460938 137.589844 C 32.628906 139.496094 26.757812 138.664062 20.855469 135.097656 C 18.003906 133.371094 15.960938 128.984375 14.722656 121.941406 C 14.324219 119.570312 14.058594 117.167969 13.925781 114.730469 C 13.816406 112.691406 13.816406 111.542969 13.925781 111.273438 "/>
<path style=" stroke:none;fill-rule:nonzero;fill:rgb(100%,100%,100%);fill-opacity:1;" d="M 84.914062 57.117188 C 85.777344 56.960938 86.691406 57.105469 87.664062 57.546875 C 84.328125 60.117188 82.582031 64.058594 82.425781 69.375 C 82.273438 74.226562 83.378906 78.78125 85.742188 83.03125 C 81.101562 82.523438 77.828125 81.460938 75.929688 79.84375 C 75.375 79.355469 75.144531 77.992188 75.230469 75.757812 C 75.320312 73.429688 75.730469 70.992188 76.457031 68.445312 C 78.359375 61.667969 81.179688 57.890625 84.914062 57.117188 "/>
<path style=" stroke:none;fill-rule:nonzero;fill:rgb(83.921569%,0%,25.098039%);fill-opacity:1;" d="M 96.386719 69.777344 C 97.425781 72.566406 98.066406 75.082031 98.308594 77.316406 C 98.574219 79.710938 98.308594 81.304688 97.511719 82.101562 C 96.980469 82.632812 95.554688 83 93.234375 83.199219 C 90.871094 83.375 88.371094 83.320312 85.742188 83.03125 C 83.378906 78.78125 82.273438 74.226562 82.425781 69.375 C 82.582031 64.058594 84.328125 60.117188 87.664062 57.546875 C 90.957031 59.078125 93.867188 63.152344 96.386719 69.777344 "/>
<path style=" stroke:none;fill-rule:nonzero;fill:rgb(83.921569%,0%,25.098039%);fill-opacity:1;" d="M 135.210938 55.453125 C 137.972656 57.714844 139.621094 61.09375 140.152344 65.589844 C 140.480469 68.402344 140.347656 72.355469 139.753906 77.449219 C 138.78125 77.828125 137.839844 78.082031 136.933594 78.214844 C 136.007812 78.371094 135.308594 78.371094 134.84375 78.214844 C 133.542969 77.792969 132.890625 74.449219 132.890625 68.179688 C 132.867188 61.777344 133.640625 57.535156 135.210938 55.453125 "/>
<path style=" stroke:none;fill-rule:nonzero;fill:rgb(100%,100%,100%);fill-opacity:1;" d="M 135.210938 55.453125 C 135.609375 54.902344 136.027344 54.578125 136.46875 54.492188 C 138.613281 54.027344 140.691406 56.652344 142.703125 62.367188 C 144.671875 68.035156 145.058594 72.089844 143.863281 74.527344 C 143.3125 75.679688 141.941406 76.652344 139.753906 77.449219 C 140.347656 72.355469 140.480469 68.402344 140.152344 65.589844 C 139.621094 61.09375 137.972656 57.714844 135.210938 55.453125 "/>
<path style=" stroke:none;fill-rule:nonzero;fill:rgb(0%,38.823529%,34.901961%);fill-opacity:1;" d="M 115.746094 52.066406 C 115.105469 52.308594 113.4375 51.632812 110.742188 50.039062 C 107.914062 48.398438 106.554688 47.058594 106.664062 46.019531 C 106.816406 44.644531 109.105469 42.75 113.527344 40.335938 C 118.011719 37.898438 120.996094 37.003906 122.480469 37.644531 C 123.429688 38.042969 122.933594 40.390625 120.988281 44.691406 C 119.019531 49.007812 117.273438 51.46875 115.746094 52.066406 "/>
<path style=" stroke:none;fill-rule:nonzero;fill:rgb(0%,38.823529%,34.901961%);fill-opacity:1;" d="M 100.992188 54.921875 C 100.925781 54.636719 101.257812 54.09375 101.988281 53.296875 C 102.738281 52.476562 103.414062 51.988281 104.011719 51.832031 L 104.742188 52.863281 C 105.359375 53.902344 105.976562 55.367188 106.597656 57.25 L 106.167969 58.277344 C 105.746094 59.03125 105.226562 59.554688 104.609375 59.839844 L 103.015625 58.3125 C 101.910156 57.09375 101.238281 55.964844 100.992188 54.921875 "/>
<path style=" stroke:none;fill-rule:nonzero;fill:rgb(0%,38.823529%,34.901961%);fill-opacity:1;" d="M 126.621094 62.167969 C 127.308594 66.085938 127.363281 68.28125 126.789062 68.746094 C 126.28125 69.167969 124.734375 69 122.148438 68.246094 C 119.539062 67.492188 118.058594 66.761719 117.703125 66.054688 C 117.816406 64.414062 118.65625 62.367188 120.222656 59.90625 C 121.835938 57.449219 123.140625 56.21875 124.136719 56.21875 C 125.109375 56.21875 125.9375 58.203125 126.621094 62.167969 "/>
<path style=" stroke:none;fill-rule:nonzero;fill:rgb(0%,38.823529%,34.901961%);fill-opacity:1;" d="M 128.613281 119.949219 C 128.523438 118.683594 129.296875 116.878906 130.933594 114.53125 C 132.523438 112.226562 133.675781 111.121094 134.382812 111.207031 C 135.441406 111.320312 136.171875 113.546875 136.570312 117.886719 C 136.945312 122.25 136.601562 124.609375 135.542969 124.964844 C 134.371094 125.363281 132.964844 125.140625 131.332031 124.300781 C 129.453125 123.304688 128.546875 121.851562 128.613281 119.949219 "/>
<path style=" stroke:none;fill-rule:nonzero;fill:rgb(0%,38.823529%,34.901961%);fill-opacity:1;" d="M 23.507812 101.273438 L 28.980469 101.507812 C 31.433594 101.992188 32.847656 102.535156 33.222656 103.132812 C 33.84375 104.132812 33.433594 106.234375 31.996094 109.449219 C 30.582031 112.636719 29.390625 114.277344 28.417969 114.367188 C 27.578125 114.433594 25.875 113.589844 23.3125 111.839844 C 20.722656 110.089844 19.441406 108.871094 19.464844 108.183594 C 19.488281 107.300781 19.917969 106.035156 20.757812 104.398438 C 21.6875 102.558594 22.601562 101.519531 23.507812 101.273438 "/>
<path style=" stroke:none;fill-rule:nonzero;fill:rgb(0%,38.823529%,34.901961%);fill-opacity:1;" d="M 55.039062 72.800781 C 55.613281 73.796875 54.6875 76.566406 52.253906 81.105469 C 49.824219 85.648438 47.957031 88.0625 46.652344 88.347656 C 45.457031 88.636719 43.511719 88.117188 40.816406 86.789062 C 38.273438 85.570312 36.582031 84.449219 35.742188 83.429688 C 35.480469 83.097656 35.65625 82.125 36.273438 80.507812 L 37.269531 78.148438 L 41.710938 74.625 C 44.71875 72.257812 46.398438 71.027344 46.75 70.9375 L 50.894531 71.304688 C 53.328125 71.726562 54.707031 72.222656 55.039062 72.800781 "/>
<path style=" stroke:none;fill-rule:nonzero;fill:rgb(100%,100%,100%);fill-opacity:1;" d="M 88.691406 60.902344 C 89.402344 60.902344 90.019531 61.601562 90.550781 62.996094 C 91.082031 64.480469 91.335938 66.332031 91.3125 68.546875 C 91.269531 70.652344 90.980469 72.3125 90.449219 73.53125 C 89.964844 74.636719 89.367188 75.191406 88.660156 75.191406 C 87.996094 75.191406 87.421875 74.59375 86.9375 73.398438 C 86.40625 72.132812 86.117188 70.539062 86.074219 68.613281 C 85.984375 66.285156 86.230469 64.394531 86.804688 62.929688 C 87.3125 61.578125 87.941406 60.902344 88.691406 60.902344 "/>
<path style=" stroke:none;fill-rule:nonzero;fill:rgb(100%,100%,100%);fill-opacity:1;" d="M 133.652344 61.636719 L 134.316406 58.644531 C 134.582031 58.289062 134.835938 58.125 135.078125 58.144531 C 135.476562 58.167969 135.851562 58.601562 136.203125 59.441406 C 136.714844 60.570312 136.988281 62.167969 137.035156 64.226562 C 137.054688 66.175781 136.878906 67.691406 136.503906 68.777344 C 136.148438 69.753906 135.707031 70.242188 135.175781 70.242188 C 134.84375 70.242188 134.515625 69.996094 134.183594 69.507812 C 133.828125 68.976562 133.585938 68.28125 133.453125 67.417969 C 133.1875 65.886719 133.253906 63.960938 133.652344 61.636719 "/>
<path style=" stroke:none;fill-rule:nonzero;fill:rgb(5.098039%,7.45098%,10.196078%);fill-opacity:1;" d="M 119.527344 33.457031 C 113.472656 32.285156 107.335938 31.832031 101.125 32.097656 C 94.453125 32.363281 88.316406 33.449219 82.726562 35.351562 C 82.527344 35.417969 82.25 35.199219 81.894531 34.6875 C 81.519531 34.179688 81.433594 33.878906 81.632812 33.792969 C 87.976562 31.644531 94.847656 30.492188 102.253906 30.335938 C 108.753906 30.179688 114.6875 30.789062 120.058594 32.164062 C 122.800781 32.871094 124.101562 33.390625 123.96875 33.726562 L 119.527344 33.457031 "/>
<path style=" stroke:none;fill-rule:nonzero;fill:rgb(5.098039%,7.45098%,10.196078%);fill-opacity:1;" d="M 137.433594 42.730469 C 141.917969 49.242188 145.191406 56.796875 147.246094 65.390625 C 149.035156 72.875 149.476562 78.667969 148.570312 82.765625 C 147.578125 87.308594 142.625 91.960938 133.71875 96.722656 C 124.875 101.460938 116.332031 104.085938 108.089844 104.597656 C 99.269531 105.128906 90.96875 104.398438 83.1875 102.402344 C 75.410156 100.410156 70.390625 97.71875 68.136719 94.328125 C 67.40625 93.222656 67.175781 92.546875 67.441406 92.304688 C 67.726562 92.058594 68.378906 92.492188 69.398438 93.597656 C 72.378906 96.878906 77.695312 99.378906 85.34375 101.109375 C 92.617188 102.746094 100.210938 103.324219 108.121094 102.835938 C 116.390625 102.328125 124.734375 99.722656 133.15625 95.027344 C 141.246094 90.507812 145.730469 86.234375 146.617188 82.203125 C 147.542969 78.015625 147.15625 72.367188 145.457031 65.257812 C 143.554688 57.304688 140.515625 50.148438 136.335938 43.792969 C 134.613281 41.15625 133.9375 39.695312 134.316406 39.40625 C 134.667969 39.117188 135.707031 40.226562 137.433594 42.730469 "/>
<path style=" stroke:none;fill-rule:nonzero;fill:rgb(5.098039%,7.45098%,10.196078%);fill-opacity:1;" d="M 60.609375 57.945312 C 59.152344 60.695312 56.199219 63.960938 51.757812 67.75 C 49.105469 69.984375 44.640625 73.53125 38.363281 78.382812 C 32.636719 82.945312 28.21875 86.964844 25.101562 90.441406 C 20.8125 95.226562 17.960938 99.933594 16.546875 104.5625 C 14.84375 110.125 14.757812 116.371094 16.28125 123.304688 C 17.695312 129.835938 19.707031 133.871094 22.316406 135.398438 C 25.125 137.035156 28.902344 137.757812 33.65625 137.558594 C 38.5625 137.359375 41.957031 136.207031 43.832031 134.101562 C 46.730469 130.84375 47.855469 125.574219 47.214844 118.285156 C 46.550781 110.84375 44.296875 104.90625 40.453125 100.476562 C 38.949219 98.726562 38.308594 97.664062 38.527344 97.285156 C 38.75 96.910156 39.691406 97.609375 41.347656 99.378906 C 46.1875 104.585938 48.882812 110.953125 49.4375 118.484375 C 49.945312 125.640625 48.453125 131.179688 44.960938 135.097656 C 42.863281 137.46875 39.082031 138.796875 33.621094 139.085938 C 28.339844 139.375 24.152344 138.609375 21.054688 136.792969 C 17.917969 134.953125 15.617188 130.613281 14.160156 123.769531 C 12.679688 116.722656 12.824219 110.210938 14.589844 104.230469 C 15.9375 99.710938 18.601562 95.183594 22.582031 90.640625 C 25.476562 87.320312 29.664062 83.429688 35.148438 78.980469 L 48.742188 67.949219 C 53.648438 63.71875 57.304688 59.828125 59.714844 56.285156 C 59.824219 56.128906 60.023438 56.320312 60.3125 56.851562 C 60.621094 57.402344 60.722656 57.769531 60.609375 57.945312 "/>
<path style=" stroke:none;fill-rule:nonzero;fill:rgb(5.098039%,7.45098%,10.196078%);fill-opacity:1;" d="M 68.734375 28.609375 C 70.105469 28.164062 72.414062 28.609375 75.664062 29.9375 C 78.933594 31.289062 81.621094 32.9375 83.71875 34.886719 C 85.378906 36.4375 86.019531 37.3125 85.644531 37.511719 C 85.289062 37.734375 84.273438 37.191406 82.59375 35.882812 C 80.425781 34.246094 77.917969 32.859375 75.066406 31.730469 C 72.28125 30.601562 70.414062 30.203125 69.464844 30.535156 C 67.914062 31.042969 66.125 34.976562 64.09375 42.332031 C 61.949219 50.105469 60.554688 58.257812 59.914062 66.785156 C 59.738281 69.242188 59.429688 70.375 58.984375 70.175781 C 58.523438 69.976562 58.332031 68.8125 58.421875 66.683594 C 58.710938 59.308594 59.816406 51.589844 61.738281 43.527344 C 63.925781 34.402344 66.257812 29.425781 68.734375 28.609375 "/>
<path style=" stroke:none;fill-rule:nonzero;fill:rgb(5.098039%,7.45098%,10.196078%);fill-opacity:1;" d="M 114.191406 31.464844 C 116.113281 30.003906 119.0625 28.609375 123.042969 27.277344 C 127.527344 25.773438 130.644531 25.417969 132.390625 26.214844 C 134.117188 26.992188 135.683594 29.59375 137.101562 34.023438 C 138.402344 38.144531 139.132812 42.285156 139.289062 46.449219 C 139.289062 46.648438 139.011719 46.4375 138.460938 45.820312 C 137.886719 45.199219 137.597656 44.777344 137.597656 44.554688 C 137.464844 41.191406 136.691406 37.644531 135.277344 33.925781 C 133.929688 30.378906 132.679688 28.34375 131.53125 27.808594 C 130.445312 27.324219 127.972656 27.632812 124.101562 28.742188 C 120.191406 29.847656 117.40625 31.035156 115.746094 32.296875 C 115.59375 32.429688 115.25 32.363281 114.71875 32.097656 C 114.210938 31.808594 114.035156 31.597656 114.191406 31.464844 "/>
<path style=" stroke:none;fill-rule:nonzero;fill:rgb(5.098039%,7.45098%,10.196078%);fill-opacity:1;" d="M 115.417969 51.136719 C 116.5 51.113281 118.011719 49.042969 119.957031 44.921875 C 121.882812 40.867188 122.601562 38.71875 122.113281 38.476562 C 121.03125 37.921875 118.34375 38.730469 114.058594 40.902344 C 109.746094 43.074219 107.582031 44.746094 107.558594 45.917969 C 107.535156 46.648438 108.488281 47.679688 110.410156 49.007812 C 112.378906 50.339844 114.046875 51.046875 115.417969 51.136719 M 112.765625 40.003906 C 117.472656 37.457031 120.832031 36.371094 122.84375 36.75 C 123.527344 36.882812 123.726562 37.789062 123.441406 39.472656 C 123.175781 41.023438 122.578125 42.839844 121.648438 44.921875 C 119.328125 50.105469 117.25 52.652344 115.417969 52.5625 C 113.957031 52.476562 112.011719 51.632812 109.582031 50.039062 C 107.039062 48.378906 105.769531 46.972656 105.769531 45.820312 C 105.769531 44.46875 108.101562 42.53125 112.765625 40.003906 "/>
<path style=" stroke:none;fill-rule:nonzero;fill:rgb(5.098039%,7.45098%,10.196078%);fill-opacity:1;" d="M 105.933594 57.449219 C 106 57.269531 105.757812 56.453125 105.203125 54.988281 C 104.652344 53.503906 104.253906 52.753906 104.011719 52.730469 C 103.8125 52.707031 103.371094 53.007812 102.683594 53.628906 C 102 54.246094 101.65625 54.710938 101.65625 55.023438 C 101.679688 55.3125 102.144531 56.0625 103.050781 57.28125 C 103.957031 58.457031 104.484375 59.042969 104.640625 59.042969 C 104.773438 59.042969 105.003906 58.820312 105.335938 58.378906 L 105.933594 57.449219 M 106 53.960938 C 106.683594 55.597656 107.039062 56.71875 107.0625 57.316406 C 107.082031 57.804688 106.730469 58.46875 106 59.308594 C 105.25 60.171875 104.683594 60.515625 104.308594 60.339844 C 103.867188 60.140625 103.105469 59.320312 102.023438 57.878906 C 100.851562 56.351562 100.308594 55.300781 100.398438 54.722656 C 100.484375 54.125 101.003906 53.371094 101.957031 52.464844 C 102.90625 51.601562 103.625 51.179688 104.109375 51.203125 C 104.617188 51.246094 105.25 52.164062 106 53.960938 "/>
<path style=" stroke:none;fill-rule:nonzero;fill:rgb(5.098039%,7.45098%,10.196078%);fill-opacity:1;" d="M 123.902344 57.183594 C 123.21875 57.136719 122.089844 58.433594 120.523438 61.070312 C 118.996094 63.683594 118.324219 65.246094 118.5 65.753906 C 118.675781 66.21875 119.925781 66.785156 122.246094 67.449219 C 124.589844 68.113281 125.925781 68.292969 126.257812 67.980469 C 126.765625 67.492188 126.667969 65.578125 125.960938 62.234375 C 125.253906 58.910156 124.566406 57.226562 123.902344 57.183594 M 119.394531 59.972656 C 121.316406 56.652344 122.832031 55.046875 123.9375 55.15625 C 125.328125 55.289062 126.445312 57.59375 127.285156 62.066406 C 128.105469 66.519531 128.039062 68.976562 127.085938 69.441406 C 126.269531 69.863281 124.46875 69.609375 121.683594 68.679688 C 118.941406 67.769531 117.4375 66.996094 117.171875 66.351562 C 116.753906 65.402344 117.496094 63.273438 119.394531 59.972656 "/>
<path style=" stroke:none;fill-rule:nonzero;fill:rgb(5.098039%,7.45098%,10.196078%);fill-opacity:1;" d="M 77.253906 63.792969 C 79.839844 58.542969 82.613281 56.085938 85.578125 56.417969 C 89.753906 56.90625 93.347656 60.4375 96.351562 67.019531 C 97.613281 69.808594 98.441406 72.566406 98.839844 75.292969 C 99.257812 78.125 99.113281 80.386719 98.40625 82.070312 C 98.03125 83 96.617188 83.621094 94.164062 83.929688 C 91.910156 84.195312 89.289062 84.171875 86.304688 83.863281 C 83.300781 83.554688 80.734375 83.011719 78.613281 82.234375 C 76.269531 81.414062 75 80.472656 74.800781 79.410156 C 73.804688 74.359375 74.625 69.15625 77.253906 63.792969 M 92.835938 64.261719 C 90.515625 60.316406 88.042969 58.203125 85.410156 57.914062 C 84.371094 57.804688 83.246094 58.378906 82.027344 59.640625 C 80.195312 61.546875 78.714844 64.292969 77.585938 67.882812 C 76.390625 71.78125 76.039062 75.511719 76.523438 79.078125 C 76.703125 80.453125 80.007812 81.492188 86.4375 82.203125 C 92.871094 82.933594 96.363281 82.65625 96.914062 81.371094 C 97.492188 79.976562 97.390625 77.539062 96.617188 74.0625 C 95.800781 70.429688 94.539062 67.160156 92.835938 64.261719 "/>
<path style=" stroke:none;fill-rule:nonzero;fill:rgb(5.098039%,7.45098%,10.196078%);fill-opacity:1;" d="M 141.675781 61.601562 C 140.019531 57.480469 138.347656 55.421875 136.667969 55.421875 C 135.1875 55.421875 134.28125 58.933594 133.949219 65.953125 C 133.617188 72.933594 134.039062 76.765625 135.210938 77.449219 C 135.984375 77.894531 137.441406 77.648438 139.585938 76.71875 C 141.730469 75.789062 142.890625 74.914062 143.066406 74.09375 C 143.929688 70.175781 143.464844 66.011719 141.675781 61.601562 M 132.390625 65.390625 C 132.769531 57.726562 134.195312 53.894531 136.667969 53.894531 C 138.8125 53.894531 140.890625 56.1875 142.902344 60.769531 C 145.003906 65.601562 145.589844 70.109375 144.660156 74.292969 C 144.328125 75.710938 142.691406 76.972656 139.753906 78.082031 C 136.902344 79.167969 135.089844 79.378906 134.316406 78.714844 C 133.585938 78.117188 133.042969 76.476562 132.691406 73.796875 C 132.335938 71.226562 132.238281 68.425781 132.390625 65.390625 "/>
<path style=" stroke:none;fill-rule:nonzero;fill:rgb(5.098039%,7.45098%,10.196078%);fill-opacity:1;" d="M 46.386719 70.308594 L 52.1875 70.671875 C 54.445312 71.070312 55.738281 71.59375 56.066406 72.234375 C 56.664062 73.453125 55.582031 76.574219 52.820312 81.605469 C 50.054688 86.675781 47.945312 89.210938 46.488281 89.210938 C 45.09375 89.210938 42.816406 88.515625 39.65625 87.121094 C 36.320312 85.65625 34.648438 84.460938 34.648438 83.53125 C 34.648438 83 34.894531 82.203125 35.378906 81.140625 L 36.972656 78.015625 C 37.082031 77.839844 37.378906 77.726562 37.867188 77.683594 C 38.375 77.660156 38.574219 77.738281 38.460938 77.914062 C 37.867188 79.023438 37.390625 80.097656 37.035156 81.140625 C 36.726562 82.046875 36.574219 82.699219 36.574219 83.097656 C 36.660156 83.699219 38.085938 84.617188 40.851562 85.855469 C 43.546875 87.074219 45.414062 87.695312 46.453125 87.71875 C 47.425781 87.40625 49.015625 85.148438 51.226562 80.941406 C 53.4375 76.730469 54.386719 74.160156 54.078125 73.230469 C 53.902344 72.855469 52.953125 72.5 51.226562 72.167969 L 46.089844 71.800781 C 45.867188 71.824219 45.8125 71.582031 45.921875 71.070312 C 46.035156 70.582031 46.1875 70.328125 46.386719 70.308594 "/>
<path style=" stroke:none;fill-rule:nonzero;fill:rgb(5.098039%,7.45098%,10.196078%);fill-opacity:1;" d="M 23.808594 101.871094 C 23.121094 102.203125 22.339844 103.125 21.453125 104.628906 C 20.570312 106.113281 20.160156 107.144531 20.226562 107.71875 C 20.316406 108.316406 21.488281 109.414062 23.742188 111.007812 C 25.996094 112.605469 27.457031 113.355469 28.117188 113.269531 C 28.78125 113.179688 29.808594 111.652344 31.203125 108.683594 C 32.59375 105.714844 33.113281 104.042969 32.761719 103.667969 C 32.363281 103.269531 30.914062 102.800781 28.417969 102.269531 C 25.875 101.738281 24.339844 101.605469 23.808594 101.871094 M 20.128906 103.765625 C 21.167969 102.039062 22.148438 100.929688 23.078125 100.445312 L 28.816406 100.710938 C 31.996094 101.308594 33.855469 102.027344 34.382812 102.867188 C 34.871094 103.644531 34.316406 105.816406 32.726562 109.382812 C 31.136719 112.925781 29.832031 114.886719 28.816406 115.261719 C 28.039062 115.574219 26.21875 114.71875 23.34375 112.703125 C 20.425781 110.667969 18.890625 109.070312 18.734375 107.917969 C 18.625 106.921875 19.089844 105.539062 20.128906 103.765625 "/>
<path style=" stroke:none;fill-rule:nonzero;fill:rgb(5.098039%,7.45098%,10.196078%);fill-opacity:1;" d="M 129.339844 119.878906 L 129.339844 119.914062 C 129.386719 121.753906 130.28125 123.09375 132.027344 123.933594 C 133.597656 124.6875 134.65625 124.808594 135.210938 124.300781 C 135.785156 123.769531 135.984375 121.753906 135.808594 118.253906 C 135.628906 114.6875 135.109375 112.703125 134.25 112.304688 C 133.785156 112.105469 132.84375 113.101562 131.429688 115.296875 C 130.039062 117.488281 129.339844 119.015625 129.339844 119.878906 M 130.304688 114.164062 C 132.003906 111.441406 133.320312 110.089844 134.25 110.113281 C 135.75 110.132812 136.691406 112.539062 137.066406 117.324219 C 137.441406 122.019531 137.132812 124.730469 136.136719 125.460938 C 135.320312 126.082031 133.828125 125.972656 131.664062 125.128906 C 129.1875 124.15625 127.917969 122.527344 127.851562 120.246094 C 127.828125 118.871094 128.644531 116.847656 130.304688 114.164062 "/>
<path style=" stroke:none;fill-rule:nonzero;fill:rgb(5.098039%,7.45098%,10.196078%);fill-opacity:1;" d="M 144.859375 81.207031 C 144.835938 82.070312 144.714844 82.777344 144.492188 83.332031 L 143.832031 84.429688 C 142.746094 85.714844 140.160156 87.328125 136.074219 89.28125 C 131.851562 91.296875 128.191406 92.613281 125.097656 93.234375 C 119.460938 94.386719 110.808594 94.484375 99.136719 93.53125 C 87.464844 92.601562 80.09375 91.207031 77.023438 89.347656 C 76.515625 89.011719 76.050781 88.472656 75.628906 87.71875 C 75.253906 87.074219 74.976562 86.367188 74.800781 85.589844 C 74.46875 84.195312 74.449219 83.410156 74.734375 83.230469 C 75.023438 83.054688 75.476562 83.699219 76.09375 85.160156 C 76.46875 86.023438 76.867188 86.6875 77.289062 87.152344 L 78.613281 88.148438 C 81.089844 89.5 87.710938 90.695312 98.472656 91.738281 C 110.121094 92.867188 118.898438 92.835938 124.800781 91.636719 C 127.453125 91.085938 130.601562 90.011719 134.25 88.414062 C 137.628906 86.929688 140.160156 85.582031 141.839844 84.363281 C 142.460938 83.898438 142.914062 83.421875 143.199219 82.933594 C 143.511719 82.421875 143.710938 81.804688 143.796875 81.074219 C 143.953125 79.742188 144.171875 79.125 144.460938 79.210938 C 144.746094 79.324219 144.878906 79.988281 144.859375 81.207031 "/>
<path style=" stroke:none;fill-rule:nonzero;fill:rgb(5.098039%,7.45098%,10.196078%);fill-opacity:1;" d="M 94.59375 53.925781 C 95.367188 54.636719 96.121094 55.5 96.847656 56.519531 C 97.625 57.582031 98.175781 58.542969 98.507812 59.410156 C 98.992188 60.648438 99.015625 61.347656 98.574219 61.503906 C 98.109375 61.636719 97.589844 61.148438 97.015625 60.039062 C 96.066406 58.15625 94.90625 56.453125 93.535156 54.921875 C 92.25 53.4375 91.742188 52.574219 92.007812 52.332031 C 92.296875 52.089844 93.15625 52.621094 94.59375 53.925781 "/>
<path style=" stroke:none;fill-rule:nonzero;fill:rgb(5.098039%,7.45098%,10.196078%);fill-opacity:1;" d="M 131.960938 54.160156 C 131.542969 55.378906 131.277344 56.683594 131.164062 58.078125 C 131.078125 59.296875 130.800781 59.894531 130.335938 59.875 C 129.871094 59.875 129.671875 59.277344 129.738281 58.078125 C 129.804688 56.617188 130.183594 55.179688 130.867188 53.761719 C 131.484375 52.496094 131.9375 51.898438 132.226562 51.964844 C 132.492188 52.054688 132.402344 52.785156 131.960938 54.160156 "/>
<path style=" stroke:none;fill-rule:nonzero;fill:rgb(5.098039%,7.45098%,10.196078%);fill-opacity:1;" d="M 117.40625 88.980469 C 116.917969 88.738281 116.53125 88.425781 116.246094 88.050781 C 115.957031 87.695312 115.859375 87.441406 115.945312 87.285156 L 116.976562 87.320312 C 117.617188 87.453125 118.089844 87.664062 118.402344 87.949219 C 118.796875 88.347656 118.875 88.691406 118.632812 88.980469 C 118.390625 89.269531 117.980469 89.269531 117.40625 88.980469 "/>
<path style=" stroke:none;fill-rule:nonzero;fill:rgb(5.098039%,7.45098%,10.196078%);fill-opacity:1;" d="M 128.710938 87.320312 C 128.246094 87.894531 127.828125 88.09375 127.453125 87.917969 C 127.074219 87.738281 127.054688 87.375 127.386719 86.820312 C 127.628906 86.421875 128.015625 86.066406 128.546875 85.757812 C 129.03125 85.445312 129.339844 85.347656 129.472656 85.457031 C 129.5625 85.546875 129.539062 85.78125 129.40625 86.15625 L 128.710938 87.320312 "/>
<path style=" stroke:none;fill-rule:nonzero;fill:rgb(5.098039%,7.45098%,10.196078%);fill-opacity:1;" d="M 88.859375 57.714844 C 89.058594 57.78125 89.144531 58.101562 89.125 58.679688 C 89.101562 59.253906 89.003906 59.484375 88.824219 59.375 C 87.699219 58.667969 86.636719 59.210938 85.644531 61.003906 C 84.714844 62.644531 84.074219 64.914062 83.71875 67.816406 C 83.34375 70.804688 83.386719 73.597656 83.851562 76.1875 C 84.40625 79.132812 85.433594 81.238281 86.9375 82.5 C 87.113281 82.632812 87.003906 82.832031 86.605469 83.097656 C 86.207031 83.34375 85.917969 83.398438 85.742188 83.265625 C 83.929688 81.914062 82.679688 79.675781 81.996094 76.554688 C 81.398438 73.742188 81.332031 70.726562 81.796875 67.515625 C 82.261719 64.347656 83.113281 61.824219 84.351562 59.941406 C 85.699219 57.925781 87.203125 57.183594 88.859375 57.714844 "/>
<path style=" stroke:none;fill-rule:nonzero;fill:rgb(5.098039%,7.45098%,10.196078%);fill-opacity:1;" d="M 134.648438 55.71875 C 135.421875 55.121094 136.316406 55.378906 137.332031 56.484375 C 138.347656 57.570312 139.222656 59.1875 139.953125 61.335938 C 141.765625 66.71875 141.839844 72.011719 140.183594 77.21875 C 140.117188 77.417969 139.863281 77.5625 139.421875 77.648438 C 138.980469 77.714844 138.78125 77.648438 138.824219 77.449219 C 140.171875 73.242188 140.214844 68.46875 138.957031 63.128906 C 138.449219 60.980469 137.820312 59.285156 137.066406 58.046875 C 136.316406 56.785156 135.628906 56.320312 135.011719 56.652344 C 134.835938 56.761719 134.691406 56.660156 134.582031 56.351562 C 134.46875 56.0625 134.492188 55.855469 134.648438 55.71875 "/>
<path style=" stroke:none;fill-rule:nonzero;fill:rgb(5.098039%,7.45098%,10.196078%);fill-opacity:1;" d="M 132.191406 96.988281 C 132.082031 96.8125 132.316406 96.542969 132.890625 96.191406 C 133.441406 95.8125 133.761719 95.714844 133.851562 95.890625 C 140.128906 106.058594 142.925781 117.921875 142.238281 131.476562 C 142.171875 132.738281 141.210938 134.046875 139.355469 135.398438 C 137.585938 136.683594 135.398438 137.757812 132.789062 138.621094 C 126.46875 140.703125 121.714844 140.625 118.53125 138.386719 C 116.433594 136.902344 114.257812 134.070312 112 129.882812 C 109.835938 125.871094 108.730469 122.828125 108.6875 120.746094 C 108.6875 120.546875 108.996094 120.324219 109.613281 120.082031 L 110.507812 119.980469 C 110.554688 122.039062 111.582031 124.953125 113.59375 128.71875 C 115.738281 132.726562 117.890625 135.496094 120.058594 137.027344 C 122.820312 138.953125 126.988281 139.007812 132.558594 137.191406 C 134.8125 136.460938 136.714844 135.550781 138.261719 134.46875 C 139.875 133.359375 140.703125 132.339844 140.746094 131.410156 C 141.386719 118.738281 138.535156 107.265625 132.191406 96.988281 "/>
<path style=" stroke:none;fill-rule:nonzero;fill:rgb(5.098039%,7.45098%,10.196078%);fill-opacity:1;" d="M 113.660156 118.054688 C 107.933594 122.550781 101.105469 125.597656 93.167969 127.191406 C 85.808594 128.652344 79.234375 128.574219 73.441406 126.957031 C 73.242188 126.890625 73.210938 126.546875 73.34375 125.929688 C 73.453125 125.328125 73.609375 125.054688 73.804688 125.097656 C 79.488281 126.691406 85.84375 126.792969 92.871094 125.394531 C 100.011719 123.980469 106.488281 121.289062 112.300781 117.324219 C 114.511719 115.816406 115.738281 115.21875 115.980469 115.527344 C 116.199219 115.816406 115.425781 116.65625 113.660156 118.054688 "/>
<path style=" stroke:none;fill-rule:nonzero;fill:rgb(5.098039%,7.45098%,10.196078%);fill-opacity:1;" d="M 98.175781 124.765625 C 98.285156 124.589844 98.792969 124.433594 99.699219 124.300781 L 100.894531 124.398438 C 99.171875 127.234375 97.039062 129.703125 94.496094 131.808594 C 91.578125 134.222656 88.714844 135.609375 85.90625 135.960938 L 75.960938 135.664062 C 73.351562 135.019531 71.816406 134.046875 71.351562 132.738281 C 71.285156 132.539062 71.453125 132.207031 71.851562 131.742188 C 72.226562 131.253906 72.445312 131.113281 72.511719 131.3125 C 72.957031 132.550781 74.316406 133.480469 76.589844 134.101562 C 79.066406 134.789062 82.105469 134.910156 85.710938 134.46875 C 87.808594 134.203125 90.03125 133.148438 92.375 131.3125 C 94.695312 129.496094 96.628906 127.3125 98.175781 124.765625 "/>
<path style=" stroke:none;fill-rule:nonzero;fill:rgb(5.098039%,7.45098%,10.196078%);fill-opacity:1;" d="M 21.023438 15.949219 C 21.199219 15.816406 21.628906 15.816406 22.316406 15.949219 C 23.378906 16.148438 24.304688 16.625 25.101562 17.378906 C 25.277344 17.511719 25.289062 17.722656 25.132812 18.007812 C 25 18.273438 24.847656 18.339844 24.671875 18.207031 C 24.207031 17.808594 23.753906 17.542969 23.3125 17.410156 L 22.679688 17.378906 L 22.8125 18.441406 L 23.011719 20.433594 C 23.078125 23.445312 22.09375 27.390625 20.0625 32.261719 C 18.46875 36.140625 16.425781 40.148438 13.925781 44.289062 C 6.058594 57.382812 4.324219 68.679688 8.722656 78.183594 C 10.378906 81.769531 12.757812 84.707031 15.851562 86.988281 C 18.589844 88.980469 21.222656 90.066406 23.742188 90.242188 C 23.941406 90.265625 23.90625 90.519531 23.640625 91.007812 C 23.398438 91.515625 23.167969 91.761719 22.945312 91.738281 C 20.007812 91.539062 17.066406 90.375 14.125 88.25 C 10.855469 85.855469 8.367188 82.757812 6.667969 78.945312 C 2.246094 69.066406 4.15625 57.292969 12.402344 43.625 C 16.292969 37.15625 18.933594 31.84375 20.328125 27.675781 C 21.808594 23.269531 22.050781 19.691406 21.054688 16.945312 C 20.855469 16.4375 20.847656 16.105469 21.023438 15.949219 "/>
<path style=" stroke:none;fill-rule:nonzero;fill:rgb(5.098039%,7.45098%,10.196078%);fill-opacity:1;" d="M 38.199219 14.785156 C 38.351562 14.941406 38.351562 15.183594 38.199219 15.515625 C 38.042969 15.871094 37.886719 15.972656 37.734375 15.816406 C 36.074219 14.089844 33.921875 12.703125 31.269531 11.664062 C 28.769531 10.710938 26.527344 10.289062 24.539062 10.398438 C 23.609375 10.464844 23.113281 10.589844 23.046875 10.765625 C 22.980469 10.921875 23.199219 11.398438 23.707031 12.195312 C 26.117188 16.003906 26.183594 21.628906 23.90625 29.074219 C 22.667969 33.058594 20.734375 38.023438 18.105469 43.957031 C 14.214844 54.214844 13.90625 63.363281 17.175781 71.402344 C 18.523438 74.726562 20.394531 77.539062 22.78125 79.84375 C 24.992188 81.992188 27.378906 83.441406 29.941406 84.195312 C 30.117188 84.238281 29.984375 84.460938 29.542969 84.859375 C 29.101562 85.238281 28.78125 85.402344 28.582031 85.359375 C 21.796875 83.363281 17.144531 78.292969 14.625 70.140625 C 11.992188 61.703125 12.632812 52.707031 16.546875 43.160156 L 19.464844 36.550781 C 20.855469 33.316406 21.90625 30.492188 22.613281 28.078125 C 24.78125 20.8125 24.527344 15.460938 21.851562 12.027344 C 20.945312 10.855469 20.527344 10.101562 20.59375 9.769531 C 20.660156 9.390625 21.320312 9.125 22.582031 8.972656 C 24.945312 8.660156 27.597656 9.027344 30.539062 10.066406 C 33.65625 11.175781 36.207031 12.746094 38.199219 14.785156 "/>
<path style=" stroke:none;fill-rule:nonzero;fill:rgb(5.098039%,7.45098%,10.196078%);fill-opacity:1;" d="M 35.875 8.375 L 37.101562 9.371094 C 37.234375 9.523438 37.203125 9.847656 37.003906 10.332031 C 36.804688 10.796875 36.640625 10.953125 36.507812 10.796875 L 35.808594 9.96875 C 35.414062 9.570312 35.113281 9.414062 34.914062 9.503906 C 34.738281 9.589844 34.671875 9.878906 34.714844 10.367188 L 35.015625 12.261719 C 35.058594 12.4375 34.882812 12.527344 34.484375 12.527344 C 34.085938 12.503906 33.875 12.394531 33.855469 12.195312 L 33.523438 10.132812 C 33.433594 9.003906 33.609375 8.261719 34.054688 7.90625 C 34.429688 7.621094 35.035156 7.773438 35.875 8.375 "/>
<path style=" stroke:none;fill-rule:nonzero;fill:rgb(5.098039%,7.45098%,10.196078%);fill-opacity:1;" d="M 86.738281 17.742188 C 91.488281 21.574219 93.988281 26.203125 94.230469 31.632812 C 94.253906 31.851562 93.964844 32.019531 93.367188 32.128906 C 92.769531 32.261719 92.472656 32.21875 92.472656 31.996094 C 92.25 27.035156 90.019531 22.75 85.777344 19.136719 C 80.667969 14.796875 73.53125 12.460938 64.355469 12.128906 C 56.511719 11.839844 50.894531 10.964844 47.515625 9.503906 C 44.773438 8.328125 42.796875 6.347656 41.578125 3.554688 C 41.3125 2.957031 41.09375 2.636719 40.917969 2.589844 C 40.71875 2.523438 40.398438 2.746094 39.953125 3.257812 C 38.472656 4.894531 37.601562 6.898438 37.335938 9.269531 C 37.070312 11.707031 37.578125 13.601562 38.859375 14.953125 C 41.445312 17.609375 43.492188 20.746094 44.996094 24.355469 C 45.921875 26.59375 47.050781 30.324219 48.375 35.550781 C 49.988281 41.910156 51.769531 46.640625 53.714844 49.738281 C 55.285156 52.242188 57.582031 54.503906 60.609375 56.519531 C 60.742188 56.585938 60.65625 56.90625 60.34375 57.480469 C 60.058594 58.035156 59.824219 58.257812 59.648438 58.144531 C 55.757812 55.578125 52.960938 52.851562 51.261719 49.972656 C 49.691406 47.3125 48.175781 42.996094 46.71875 37.015625 C 45.148438 30.523438 43.976562 26.304688 43.203125 24.355469 C 42.011719 21.277344 40.207031 18.484375 37.800781 15.980469 C 36.074219 14.1875 35.523438 11.539062 36.140625 8.039062 C 36.738281 4.742188 37.941406 2.382812 39.753906 0.964844 C 40.574219 0.320312 41.148438 0.0351562 41.480469 0.101562 C 41.8125 0.167969 42.132812 0.632812 42.441406 1.496094 C 43.769531 4.949219 45.667969 7.230469 48.144531 8.339844 C 50.929688 9.558594 56.34375 10.324219 64.390625 10.632812 C 73.851562 10.964844 81.300781 13.335938 86.738281 17.742188 "/>
<path style=" stroke:none;fill-rule:nonzero;fill:rgb(5.098039%,7.45098%,10.196078%);fill-opacity:1;" d="M 96.417969 19.402344 C 100.640625 23.035156 102.464844 26.96875 101.890625 31.199219 C 101.867188 31.398438 101.535156 31.488281 100.894531 31.464844 C 100.253906 31.441406 99.945312 31.332031 99.964844 31.132812 C 100.453125 27.5 99.015625 24.089844 95.65625 20.898438 C 91.789062 17.246094 86.40625 15.164062 79.507812 14.652344 C 79.289062 14.628906 78.648438 14.363281 77.585938 13.855469 C 76.503906 13.324219 76.0625 13.058594 76.261719 13.058594 C 84.792969 13.058594 91.511719 15.171875 96.417969 19.402344 "/>
<path style=" stroke:none;fill-rule:nonzero;fill:rgb(48.627451%,74.509804%,70.196078%);fill-opacity:1;" d="M 44.066406 105.027344 C 45.257812 100.355469 46.929688 96.855469 49.074219 94.527344 L 73.640625 101.707031 C 75.785156 109.902344 75.996094 117.710938 74.269531 125.128906 C 73.230469 129.539062 71.605469 133.46875 69.398438 136.925781 C 68.203125 138.808594 65.773438 140.050781 62.101562 140.648438 C 58.234375 141.289062 54.511719 140.902344 50.929688 139.484375 C 48.320312 138.464844 46.277344 135.972656 44.796875 132.007812 C 43.425781 128.398438 42.683594 124.066406 42.574219 119.015625 C 42.464844 114.078125 42.960938 109.414062 44.066406 105.027344 "/>
<path style=" stroke:none;fill-rule:nonzero;fill:rgb(0%,38.823529%,34.901961%);fill-opacity:1;" d="M 49.335938 114.164062 C 49.46875 112.816406 51.09375 110.988281 54.210938 108.683594 C 57.328125 106.378906 59.304688 105.550781 60.144531 106.191406 C 61.007812 106.832031 61.175781 110.332031 60.644531 116.691406 C 60.113281 123.046875 59.304688 126.269531 58.222656 126.359375 C 57.582031 126.402344 55.925781 124.632812 53.25 121.042969 C 50.554688 117.410156 49.25 115.117188 49.335938 114.164062 "/>
<path style=" stroke:none;fill-rule:nonzero;fill:rgb(40.784314%,63.137255%,59.607843%);fill-opacity:1;" d="M 43.4375 106.425781 C 43.546875 115.925781 45.679688 123.847656 49.835938 130.179688 C 53.8125 136.316406 58.785156 139.695312 64.753906 140.316406 C 62.324219 140.933594 59.691406 141.132812 56.863281 140.914062 C 51.207031 140.46875 47.394531 138.121094 45.425781 133.871094 C 43.457031 129.636719 42.539062 123.789062 42.671875 116.324219 L 43.4375 106.425781 "/>
<path style=" stroke:none;fill-rule:nonzero;fill:rgb(5.098039%,7.45098%,10.196078%);fill-opacity:1;" d="M 47.648438 98.183594 C 44.773438 103.125 43.46875 110.199219 43.734375 119.414062 C 44.023438 129.007812 46.035156 135.175781 49.769531 137.921875 C 52.3125 139.785156 55.714844 140.527344 59.980469 140.148438 C 64.09375 139.773438 66.8125 138.644531 68.136719 136.761719 C 71.144531 132.484375 73.109375 127.324219 74.039062 121.277344 C 74.878906 115.828125 74.769531 110.644531 73.707031 105.726562 C 73.175781 103.269531 73.109375 101.949219 73.507812 101.773438 C 73.90625 101.59375 74.4375 102.703125 75.097656 105.09375 C 76.46875 110.078125 76.746094 115.472656 75.929688 121.277344 C 75.042969 127.589844 73.023438 133.003906 69.859375 137.523438 C 68.226562 139.851562 64.84375 141.210938 59.714844 141.609375 C 54.699219 141.988281 50.917969 141.246094 48.375 139.382812 C 46.542969 138.035156 45.027344 135.640625 43.832031 132.207031 C 42.683594 128.929688 41.988281 125.164062 41.746094 120.910156 C 41.148438 111.253906 42.671875 103.445312 46.320312 97.484375 C 47.601562 95.382812 48.488281 94.375 48.972656 94.460938 C 49.480469 94.527344 49.039062 95.769531 47.648438 98.183594 "/>
<path style=" stroke:none;fill-rule:nonzero;fill:rgb(5.098039%,7.45098%,10.196078%);fill-opacity:1;" d="M 50.132812 113.832031 C 50.089844 114.609375 51.226562 116.78125 53.546875 120.347656 C 55.914062 123.980469 57.425781 125.75 58.089844 125.664062 C 58.820312 125.550781 59.417969 122.550781 59.882812 116.65625 C 60.34375 110.742188 60.234375 107.542969 59.550781 107.054688 C 58.910156 106.613281 57.183594 107.441406 54.378906 109.546875 C 51.59375 111.652344 50.175781 113.082031 50.132812 113.832031 M 48.609375 113.5 C 48.675781 111.882812 50.519531 109.847656 54.144531 107.386719 C 57.703125 104.996094 59.835938 104.132812 60.542969 104.796875 C 61.714844 105.925781 62.046875 109.769531 61.539062 116.324219 C 61.007812 122.882812 60.070312 126.546875 58.71875 127.324219 C 57.792969 127.878906 55.859375 126.128906 52.917969 122.074219 C 49.980469 118.042969 48.542969 115.183594 48.609375 113.5 "/>
<path style=" stroke:none;fill-rule:nonzero;fill:rgb(100%,100%,100%);fill-opacity:1;" d="M 23.609375 136.992188 C 23.5 136.660156 23.917969 136.09375 24.867188 135.296875 C 25.839844 134.5 26.570312 134.136719 27.058594 134.203125 C 27.941406 134.3125 28.550781 135.277344 28.878906 137.09375 C 29.191406 138.777344 29.210938 139.738281 28.945312 139.984375 C 28.636719 140.269531 27.777344 140.09375 26.359375 139.453125 C 24.835938 138.765625 23.917969 137.945312 23.609375 136.992188 "/>
<path style=" stroke:none;fill-rule:nonzero;fill:rgb(100%,100%,100%);fill-opacity:1;" d="M 33.488281 139.484375 C 31.941406 138.777344 31.167969 138.066406 31.167969 137.359375 C 31.167969 136.738281 31.621094 135.984375 32.527344 135.097656 C 33.410156 134.210938 34.085938 133.878906 34.550781 134.101562 C 35.28125 134.457031 35.875 135.496094 36.339844 137.226562 C 36.78125 138.886719 36.804688 139.851562 36.40625 140.117188 C 35.988281 140.402344 35.015625 140.191406 33.488281 139.484375 "/>
<path style=" stroke:none;fill-rule:nonzero;fill:rgb(100%,100%,100%);fill-opacity:1;" d="M 38.695312 137.457031 C 38.539062 136.304688 38.960938 135.242188 39.953125 134.269531 L 41.511719 133.136719 C 42.332031 133.492188 42.972656 134.554688 43.4375 136.328125 C 43.855469 137.921875 43.957031 138.851562 43.734375 139.117188 L 41.113281 139.050781 C 39.566406 138.675781 38.761719 138.144531 38.695312 137.457031 "/>
<path style=" stroke:none;fill-rule:nonzero;fill:rgb(100%,100%,100%);fill-opacity:1;" d="M 51.726562 140.25 C 51.679688 139.671875 51.878906 139.050781 52.320312 138.386719 C 52.851562 137.589844 53.527344 137.203125 54.34375 137.226562 C 55.160156 137.246094 55.792969 137.558594 56.234375 138.15625 C 56.585938 138.710938 56.742188 139.382812 56.699219 140.183594 C 56.652344 140.914062 56.398438 141.734375 55.9375 142.640625 C 55.492188 143.550781 55.140625 144.003906 54.875 144.003906 C 54.585938 144.003906 54.011719 143.527344 53.152344 142.574219 C 52.246094 141.578125 51.769531 140.800781 51.726562 140.25 "/>
<path style=" stroke:none;fill-rule:nonzero;fill:rgb(100%,100%,100%);fill-opacity:1;" d="M 58.324219 140.980469 C 58.257812 139.894531 58.554688 138.996094 59.21875 138.289062 C 59.75 137.691406 60.277344 137.390625 60.808594 137.390625 C 61.207031 137.390625 61.671875 137.691406 62.203125 138.289062 C 62.734375 138.910156 63.0625 139.527344 63.195312 140.148438 C 63.285156 140.546875 63.1875 141.234375 62.898438 142.207031 C 62.609375 143.25 62.269531 143.871094 61.871094 144.070312 C 61.472656 144.292969 60.808594 144.046875 59.882812 143.339844 C 58.886719 142.609375 58.367188 141.820312 58.324219 140.980469 "/>
<path style=" stroke:none;fill-rule:nonzero;fill:rgb(100%,100%,100%);fill-opacity:1;" d="M 64.855469 140.78125 C 64.234375 140.117188 64.289062 139.109375 65.019531 137.757812 C 65.75 136.40625 66.46875 135.828125 67.175781 136.027344 C 67.839844 136.25 68.480469 137.179688 69.097656 138.820312 C 69.671875 140.394531 69.816406 141.402344 69.53125 141.84375 C 69.265625 142.242188 68.578125 142.332031 67.472656 142.109375 C 66.347656 141.867188 65.472656 141.421875 64.855469 140.78125 "/>
<path style=" stroke:none;fill-rule:nonzero;fill:rgb(100%,100%,100%);fill-opacity:1;" d="M 76.128906 134.734375 C 76.039062 134.269531 76.46875 133.691406 77.421875 133.003906 C 78.347656 132.339844 79.023438 132.097656 79.441406 132.273438 C 80.171875 132.605469 80.648438 133.535156 80.867188 135.066406 C 81.089844 136.550781 81 137.378906 80.601562 137.558594 C 80.207031 137.734375 79.421875 137.523438 78.25 136.925781 C 76.988281 136.261719 76.28125 135.53125 76.128906 134.734375 "/>
<path style=" stroke:none;fill-rule:nonzero;fill:rgb(100%,100%,100%);fill-opacity:1;" d="M 85.113281 136.992188 C 83.765625 136.527344 82.980469 135.996094 82.757812 135.398438 C 82.558594 134.886719 82.902344 134.15625 83.785156 133.203125 C 84.671875 132.273438 85.3125 131.898438 85.710938 132.074219 C 86.484375 132.40625 87.023438 133.261719 87.332031 134.632812 C 87.597656 135.828125 87.621094 136.648438 87.398438 137.09375 L 85.113281 136.992188 "/>
<path style=" stroke:none;fill-rule:nonzero;fill:rgb(100%,100%,100%);fill-opacity:1;" d="M 88.726562 134.234375 C 88.460938 133.703125 88.835938 132.9375 89.855469 131.941406 C 90.847656 130.96875 91.566406 130.570312 92.007812 130.746094 C 92.515625 130.96875 93.015625 131.777344 93.5 133.171875 C 93.964844 134.542969 94.085938 135.386719 93.867188 135.695312 L 91.34375 135.628906 C 89.886719 135.277344 89.015625 134.8125 88.726562 134.234375 "/>
<path style=" stroke:none;fill-rule:nonzero;fill:rgb(100%,100%,100%);fill-opacity:1;" d="M 126.324219 139.351562 C 126.015625 139.042969 126.257812 138.242188 127.054688 136.960938 C 127.851562 135.652344 128.523438 135.011719 129.078125 135.03125 C 129.804688 135.078125 130.625 135.875 131.53125 137.425781 C 132.390625 138.886719 132.722656 139.75 132.523438 140.015625 C 132.28125 140.324219 131.34375 140.425781 129.707031 140.316406 C 128.003906 140.203125 126.878906 139.882812 126.324219 139.351562 "/>
<path style=" stroke:none;fill-rule:nonzero;fill:rgb(100%,100%,100%);fill-opacity:1;" d="M 133.550781 137.523438 C 133.242188 137.191406 133.441406 136.359375 134.148438 135.03125 C 134.835938 133.703125 135.429688 133.0625 135.941406 133.105469 C 136.425781 133.148438 137.109375 133.925781 137.996094 135.429688 C 138.835938 136.914062 139.179688 137.824219 139.023438 138.15625 C 138.824219 138.488281 138.015625 138.609375 136.601562 138.519531 C 135.101562 138.433594 134.082031 138.101562 133.550781 137.523438 "/>
<path style=" stroke:none;fill-rule:nonzero;fill:rgb(100%,100%,100%);fill-opacity:1;" d="M 139.089844 134.46875 C 138.734375 134.023438 138.847656 133.183594 139.421875 131.941406 C 139.972656 130.746094 140.414062 130.171875 140.746094 130.214844 C 141.320312 130.28125 142.027344 131.011719 142.871094 132.40625 C 143.6875 133.78125 143.996094 134.644531 143.796875 135 C 143.644531 135.375 142.945312 135.519531 141.707031 135.429688 C 140.40625 135.34375 139.53125 135.019531 139.089844 134.46875 "/>
<path style=" stroke:none;fill-rule:nonzero;fill:rgb(85.882353%,86.27451%,86.27451%);fill-opacity:1;" d="M 25.035156 135.097656 L 26.492188 136.925781 C 27.464844 138.277344 28.007812 139.328125 28.117188 140.082031 L 25.796875 138.886719 C 24.273438 138.023438 23.554688 137.402344 23.640625 137.027344 C 23.730469 136.648438 23.996094 136.21875 24.4375 135.730469 L 25.035156 135.097656 "/>
<path style=" stroke:none;fill-rule:nonzero;fill:rgb(85.882353%,86.27451%,86.27451%);fill-opacity:1;" d="M 32.496094 135.230469 L 33.753906 136.792969 C 34.640625 138.035156 35.222656 139.152344 35.511719 140.148438 C 32.792969 139.195312 31.402344 138.253906 31.335938 137.324219 C 31.289062 136.75 31.46875 136.226562 31.863281 135.761719 L 32.496094 135.230469 "/>
<path style=" stroke:none;fill-rule:nonzero;fill:rgb(85.882353%,86.27451%,86.27451%);fill-opacity:1;" d="M 42.90625 139.351562 C 41.492188 139.042969 40.472656 138.730469 39.855469 138.421875 C 39.148438 138.089844 38.75 137.679688 38.660156 137.191406 C 38.574219 136.769531 38.660156 136.285156 38.925781 135.730469 L 39.359375 135.03125 C 39.953125 135.320312 40.683594 136.027344 41.546875 137.160156 C 42.277344 138.132812 42.730469 138.863281 42.90625 139.351562 "/>
<path style=" stroke:none;fill-rule:nonzero;fill:rgb(85.882353%,86.27451%,86.27451%);fill-opacity:1;" d="M 53.050781 137.921875 L 53.382812 139.949219 C 53.671875 141.476562 54.023438 142.675781 54.445312 143.539062 L 53.183594 142.441406 C 52.367188 141.535156 51.980469 140.601562 52.023438 139.652344 C 52.066406 138.984375 52.234375 138.5 52.519531 138.1875 C 52.742188 137.945312 52.917969 137.855469 53.050781 137.921875 "/>
<path style=" stroke:none;fill-rule:nonzero;fill:rgb(85.882353%,86.27451%,86.27451%);fill-opacity:1;" d="M 59.019531 138.984375 L 60.277344 141.046875 L 61.9375 144.101562 C 61.316406 143.902344 60.699219 143.617188 60.078125 143.238281 C 58.84375 142.484375 58.265625 141.675781 58.355469 140.8125 C 58.445312 139.972656 58.578125 139.417969 58.753906 139.152344 L 59.019531 138.984375 "/>
<path style=" stroke:none;fill-rule:nonzero;fill:rgb(85.882353%,86.27451%,86.27451%);fill-opacity:1;" d="M 65.019531 137.789062 L 66.578125 139.285156 C 67.683594 140.414062 68.359375 141.355469 68.601562 142.109375 L 66.546875 141.445312 C 65.175781 140.914062 64.511719 140.394531 64.554688 139.882812 L 64.820312 138.386719 L 65.019531 137.789062 "/>
<path style=" stroke:none;fill-rule:nonzero;fill:rgb(85.882353%,86.27451%,86.27451%);fill-opacity:1;" d="M 77.222656 133.238281 C 77.421875 133.371094 77.839844 133.871094 78.480469 134.734375 C 79.277344 135.820312 79.71875 136.695312 79.808594 137.359375 L 77.421875 136.226562 C 76.800781 135.851562 76.480469 135.375 76.457031 134.800781 C 76.4375 134.378906 76.558594 133.992188 76.824219 133.636719 L 77.222656 133.238281 "/>
<path style=" stroke:none;fill-rule:nonzero;fill:rgb(85.882353%,86.27451%,86.27451%);fill-opacity:1;" d="M 83.421875 133.4375 L 84.515625 134.203125 C 85.355469 134.976562 86.085938 135.996094 86.703125 137.257812 L 84.914062 136.761719 C 83.699219 136.316406 83.023438 135.808594 82.890625 135.230469 C 82.757812 134.65625 82.800781 134.191406 83.023438 133.835938 L 83.421875 133.4375 "/>
<path style=" stroke:none;fill-rule:nonzero;fill:rgb(85.882353%,86.27451%,86.27451%);fill-opacity:1;" d="M 89.65625 132.109375 L 91.015625 133.105469 C 91.988281 133.96875 92.648438 134.867188 93.003906 135.796875 L 91.113281 135.53125 C 89.789062 135.199219 89.003906 134.699219 88.757812 134.035156 C 88.625 133.726562 88.683594 133.335938 88.925781 132.871094 C 89.144531 132.429688 89.390625 132.175781 89.65625 132.109375 "/>
<path style=" stroke:none;fill-rule:nonzero;fill:rgb(85.882353%,86.27451%,86.27451%);fill-opacity:1;" d="M 127.1875 136.792969 C 129.042969 137.679688 130.535156 138.785156 131.664062 140.117188 L 129.175781 140.148438 C 127.519531 140.058594 126.65625 139.726562 126.589844 139.152344 C 126.523438 138.578125 126.601562 138.011719 126.820312 137.457031 L 127.1875 136.792969 "/>
<path style=" stroke:none;fill-rule:nonzero;fill:rgb(85.882353%,86.27451%,86.27451%);fill-opacity:1;" d="M 134.117188 135.363281 C 134.492188 135.476562 135.121094 135.808594 136.007812 136.359375 C 137.199219 137.09375 137.941406 137.789062 138.226562 138.453125 L 135.90625 138.355469 C 134.335938 138.175781 133.542969 137.835938 133.519531 137.324219 C 133.476562 136.835938 133.5625 136.359375 133.785156 135.894531 L 134.117188 135.363281 "/>
<path style=" stroke:none;fill-rule:nonzero;fill:rgb(85.882353%,86.27451%,86.27451%);fill-opacity:1;" d="M 139.355469 132.109375 L 140.8125 133.003906 C 141.898438 133.757812 142.648438 134.554688 143.066406 135.398438 L 141.34375 135.265625 C 140.152344 135.085938 139.410156 134.789062 139.121094 134.367188 C 138.835938 133.945312 138.792969 133.4375 138.988281 132.839844 L 139.355469 132.109375 "/>
<path style=" stroke:none;fill-rule:nonzero;fill:rgb(5.098039%,7.45098%,10.196078%);fill-opacity:1;" d="M 125.695312 139.550781 C 125.519531 138.910156 125.871094 137.878906 126.753906 136.460938 C 127.640625 135.019531 128.402344 134.289062 129.042969 134.269531 C 129.683594 134.246094 130.578125 135.085938 131.730469 136.792969 C 132.855469 138.453125 133.34375 139.585938 133.1875 140.183594 C 133.054688 140.714844 131.816406 140.878906 129.472656 140.679688 C 127.132812 140.480469 125.871094 140.105469 125.695312 139.550781 M 127.851562 136.960938 C 127.296875 137.84375 127.074219 138.488281 127.1875 138.886719 C 127.40625 139.195312 128.191406 139.453125 129.539062 139.652344 C 130.84375 139.851562 131.550781 139.839844 131.664062 139.617188 C 131.773438 139.375 131.476562 138.664062 130.765625 137.492188 C 130.015625 136.292969 129.429688 135.683594 129.011719 135.664062 C 128.765625 135.640625 128.378906 136.074219 127.851562 136.960938 "/>
<path style=" stroke:none;fill-rule:nonzero;fill:rgb(5.098039%,7.45098%,10.196078%);fill-opacity:1;" d="M 138.328125 137.890625 C 138.460938 137.691406 138.171875 136.980469 137.464844 135.761719 C 136.78125 134.542969 136.261719 133.902344 135.90625 133.835938 C 135.640625 133.8125 135.265625 134.277344 134.777344 135.230469 C 134.269531 136.183594 134.0625 136.847656 134.148438 137.226562 C 134.214844 137.558594 134.910156 137.800781 136.238281 137.957031 L 138.328125 137.890625 M 136.074219 132.339844 C 136.78125 132.429688 137.621094 133.414062 138.59375 135.296875 C 139.519531 137.09375 139.886719 138.199219 139.6875 138.621094 C 139.488281 139.0625 138.4375 139.195312 136.535156 139.019531 C 134.589844 138.820312 133.417969 138.441406 133.023438 137.890625 C 132.667969 137.402344 132.902344 136.351562 133.71875 134.734375 C 134.535156 133.050781 135.320312 132.253906 136.074219 132.339844 "/>
<path style=" stroke:none;fill-rule:nonzero;fill:rgb(5.098039%,7.45098%,10.196078%);fill-opacity:1;" d="M 139.851562 132.308594 C 139.519531 133.0625 139.453125 133.679688 139.652344 134.167969 C 139.742188 134.433594 140.328125 134.644531 141.410156 134.800781 L 143.167969 134.699219 C 143.300781 134.476562 143.066406 133.835938 142.472656 132.773438 C 141.875 131.644531 141.355469 131.089844 140.914062 131.113281 C 140.539062 131.15625 140.183594 131.554688 139.851562 132.308594 M 139.121094 131.476562 C 139.808594 130.214844 140.394531 129.582031 140.878906 129.582031 C 141.699219 129.582031 142.558594 130.503906 143.464844 132.339844 C 144.351562 134.113281 144.660156 135.21875 144.394531 135.664062 L 141.445312 135.761719 C 139.632812 135.542969 138.648438 135.230469 138.492188 134.832031 C 138.160156 133.96875 138.371094 132.851562 139.121094 131.476562 "/>
<path style=" stroke:none;fill-rule:nonzero;fill:rgb(5.098039%,7.45098%,10.196078%);fill-opacity:1;" d="M 61.871094 138.753906 C 61.496094 138.308594 61.128906 138.109375 60.777344 138.15625 C 60.269531 138.175781 59.816406 138.5 59.417969 139.117188 C 59.019531 139.71875 58.851562 140.292969 58.917969 140.847656 C 58.984375 141.355469 59.417969 141.933594 60.210938 142.574219 C 60.984375 143.171875 61.503906 143.417969 61.769531 143.304688 C 61.949219 143.238281 62.136719 142.917969 62.335938 142.34375 C 62.601562 141.675781 62.6875 141.058594 62.601562 140.480469 C 62.535156 139.792969 62.289062 139.21875 61.871094 138.753906 M 58.421875 138.320312 C 59.171875 137.214844 59.992188 136.695312 60.875 136.761719 C 61.515625 136.804688 62.089844 137.136719 62.601562 137.757812 C 63.109375 138.375 63.429688 139.140625 63.5625 140.050781 C 63.714844 140.933594 63.648438 141.898438 63.363281 142.941406 C 63.074219 143.957031 62.722656 144.546875 62.300781 144.699219 C 61.769531 144.898438 60.921875 144.613281 59.75 143.835938 C 58.488281 142.972656 57.769531 142.03125 57.59375 141.011719 C 57.460938 140.238281 57.738281 139.339844 58.421875 138.320312 "/>
<path style=" stroke:none;fill-rule:nonzero;fill:rgb(5.098039%,7.45098%,10.196078%);fill-opacity:1;" d="M 55.539062 138.6875 C 55.25 138.289062 54.929688 138.066406 54.578125 138.023438 C 54.15625 137.976562 53.714844 138.15625 53.25 138.554688 C 52.765625 138.953125 52.519531 139.382812 52.519531 139.851562 C 52.542969 140.425781 52.863281 141.113281 53.480469 141.910156 C 54.035156 142.664062 54.445312 143.039062 54.707031 143.039062 C 54.953125 143.015625 55.21875 142.695312 55.503906 142.074219 C 55.8125 141.457031 55.980469 140.835938 56 140.214844 C 56.023438 139.640625 55.871094 139.128906 55.539062 138.6875 M 52.121094 137.589844 C 52.941406 136.859375 53.792969 136.550781 54.675781 136.660156 C 55.40625 136.75 56.035156 137.148438 56.566406 137.855469 C 57.074219 138.566406 57.304688 139.351562 57.261719 140.214844 C 57.238281 140.925781 56.964844 141.832031 56.433594 142.941406 C 55.859375 144.09375 55.359375 144.691406 54.941406 144.734375 C 54.453125 144.800781 53.691406 144.234375 52.652344 143.039062 C 51.546875 141.800781 50.972656 140.746094 50.929688 139.882812 C 50.886719 139.0625 51.28125 138.300781 52.121094 137.589844 "/>
<path style=" stroke:none;fill-rule:nonzero;fill:rgb(5.098039%,7.45098%,10.196078%);fill-opacity:1;" d="M 68.300781 138.023438 C 67.792969 137.3125 67.328125 136.960938 66.910156 136.960938 C 66.488281 136.914062 66.070312 137.226562 65.648438 137.890625 C 65.207031 138.578125 65.042969 139.21875 65.152344 139.816406 C 65.261719 140.347656 65.882812 140.8125 67.007812 141.210938 C 68.09375 141.566406 68.722656 141.667969 68.898438 141.511719 C 69.054688 141.378906 69.085938 140.914062 69 140.117188 C 68.910156 139.25 68.679688 138.554688 68.300781 138.023438 M 67.140625 135.496094 C 68.226562 135.652344 69.078125 136.792969 69.695312 138.917969 C 70.269531 140.914062 70.378906 142.109375 70.027344 142.507812 L 66.910156 142.308594 C 65.054688 141.800781 64.046875 141.132812 63.894531 140.316406 C 63.714844 139.40625 63.96875 138.367188 64.65625 137.191406 C 65.40625 135.929688 66.234375 135.363281 67.140625 135.496094 "/>
<path style=" stroke:none;fill-rule:nonzero;fill:rgb(5.098039%,7.45098%,10.196078%);fill-opacity:1;" d="M 44.03125 136.0625 C 44.585938 138.1875 44.640625 139.382812 44.199219 139.652344 C 43.625 139.984375 42.496094 139.917969 40.816406 139.453125 C 39.070312 138.964844 38.097656 138.375 37.898438 137.691406 C 37.632812 136.871094 37.941406 135.820312 38.828125 134.535156 C 39.734375 133.203125 40.640625 132.574219 41.546875 132.640625 C 42.605469 132.707031 43.4375 133.847656 44.03125 136.0625 M 39.292969 137.160156 C 39.359375 137.625 39.964844 138.042969 41.113281 138.421875 C 42.21875 138.777344 42.894531 138.84375 43.136719 138.621094 C 43.316406 138.464844 43.214844 137.722656 42.839844 136.394531 C 42.441406 134.976562 41.976562 134.222656 41.445312 134.136719 C 41.003906 134.070312 40.519531 134.367188 39.988281 135.03125 C 39.390625 135.742188 39.160156 136.449219 39.292969 137.160156 "/>
<path style=" stroke:none;fill-rule:nonzero;fill:rgb(5.098039%,7.45098%,10.196078%);fill-opacity:1;" d="M 31.964844 137.359375 C 31.964844 137.867188 32.570312 138.398438 33.789062 138.953125 C 34.980469 139.484375 35.667969 139.628906 35.84375 139.382812 C 36.042969 139.140625 35.988281 138.421875 35.675781 137.226562 C 35.347656 135.941406 34.914062 135.242188 34.382812 135.132812 C 33.875 135.019531 33.347656 135.253906 32.792969 135.828125 C 32.285156 136.359375 32.007812 136.847656 31.964844 137.292969 L 31.964844 137.359375 M 31.929688 134.734375 C 32.882812 133.847656 33.722656 133.46875 34.449219 133.601562 C 35.554688 133.800781 36.351562 134.964844 36.839844 137.09375 C 37.300781 139.109375 37.3125 140.304688 36.871094 140.679688 C 36.453125 141.078125 35.28125 140.859375 33.355469 140.015625 C 31.34375 139.175781 30.382812 138.222656 30.472656 137.160156 C 30.539062 136.40625 31.023438 135.597656 31.929688 134.734375 "/>
<path style=" stroke:none;fill-rule:nonzero;fill:rgb(5.098039%,7.45098%,10.196078%);fill-opacity:1;" d="M 89.390625 133.769531 C 89.457031 134.210938 90.097656 134.632812 91.3125 135.03125 C 92.484375 135.410156 93.148438 135.496094 93.300781 135.296875 C 93.457031 135.097656 93.355469 134.410156 93.003906 133.238281 C 92.628906 131.996094 92.21875 131.355469 91.777344 131.3125 C 91.402344 131.265625 90.890625 131.554688 90.25 132.175781 C 89.609375 132.816406 89.324219 133.347656 89.390625 133.769531 M 89.421875 131.542969 C 90.570312 130.4375 91.476562 129.992188 92.140625 130.214844 C 92.980469 130.523438 93.667969 131.578125 94.195312 133.371094 C 94.707031 135.078125 94.792969 136.085938 94.460938 136.394531 C 94.128906 136.683594 93.046875 136.582031 91.214844 136.09375 C 89.335938 135.585938 88.285156 135.019531 88.0625 134.402344 C 87.796875 133.625 88.25 132.671875 89.421875 131.542969 "/>
<path style=" stroke:none;fill-rule:nonzero;fill:rgb(5.098039%,7.45098%,10.196078%);fill-opacity:1;" d="M 85.179688 136.425781 C 86.152344 136.761719 86.714844 136.847656 86.871094 136.695312 C 87.023438 136.539062 86.992188 135.90625 86.769531 134.800781 C 86.527344 133.625 86.183594 132.984375 85.742188 132.871094 C 85.300781 132.761719 84.78125 133.003906 84.183594 133.601562 C 83.585938 134.222656 83.34375 134.765625 83.453125 135.230469 C 83.585938 135.695312 84.160156 136.09375 85.179688 136.425781 M 86.007812 131.644531 C 86.738281 131.820312 87.34375 132.785156 87.832031 134.535156 C 88.273438 136.238281 88.316406 137.359375 87.964844 137.890625 C 87.742188 138.222656 86.757812 138.078125 85.011719 137.457031 C 83.199219 136.816406 82.226562 136.140625 82.09375 135.429688 C 81.941406 134.722656 82.359375 133.871094 83.355469 132.871094 C 84.371094 131.851562 85.257812 131.445312 86.007812 131.644531 "/>
<path style=" stroke:none;fill-rule:nonzero;fill:rgb(5.098039%,7.45098%,10.196078%);fill-opacity:1;" d="M 78.480469 136.359375 C 79.453125 136.894531 80.039062 137.09375 80.238281 136.960938 C 80.414062 136.847656 80.4375 136.207031 80.304688 135.03125 C 80.148438 133.792969 79.839844 133.09375 79.375 132.9375 C 78.933594 132.785156 78.402344 132.9375 77.785156 133.402344 C 77.1875 133.847656 76.902344 134.289062 76.921875 134.734375 C 76.945312 135.265625 77.464844 135.808594 78.480469 136.359375 M 79.742188 131.710938 C 80.667969 131.910156 81.222656 133.003906 81.398438 135 C 81.554688 136.882812 81.441406 137.957031 81.066406 138.222656 C 80.648438 138.488281 79.609375 138.175781 77.949219 137.292969 C 76.269531 136.359375 75.398438 135.550781 75.332031 134.867188 C 75.265625 134.222656 75.742188 133.492188 76.757812 132.671875 C 77.839844 131.832031 78.835938 131.511719 79.742188 131.710938 "/>
<path style=" stroke:none;fill-rule:nonzero;fill:rgb(5.098039%,7.45098%,10.196078%);fill-opacity:1;" d="M 26.226562 138.453125 C 27.398438 139.050781 28.074219 139.242188 28.25 139.019531 C 28.449219 138.796875 28.417969 138.101562 28.152344 136.925781 C 27.863281 135.707031 27.519531 135.042969 27.125 134.933594 C 26.660156 134.777344 26.097656 134.953125 25.433594 135.464844 C 24.769531 135.972656 24.4375 136.472656 24.4375 136.960938 C 24.460938 137.335938 25.058594 137.835938 26.226562 138.453125 M 27.421875 133.4375 C 28.371094 133.636719 29.046875 134.800781 29.445312 136.925781 C 29.820312 138.964844 29.808594 140.105469 29.410156 140.347656 C 28.726562 140.8125 27.488281 140.570312 25.699219 139.617188 C 23.929688 138.6875 23.011719 137.855469 22.945312 137.125 C 22.859375 136.285156 23.378906 135.410156 24.503906 134.5 C 25.609375 133.613281 26.582031 133.261719 27.421875 133.4375 "/>
</g>
</svg>
